# xmcd
#
# Track frame offsets: 
#        187
#        18537
#        52690
#        85482
#
# Disc length: 1552 seconds
#
# Revision: 0
# Processed by: cddbd v1.5PL3 Copyright (c) Steve Scherf et al.
# Submitted via: ExactAudioCopy v0.95a4
#
DISCID=26060e04
DTITLE=Robert Miles - Children [BVCP-8833]
DYEAR=1996
DGENRE=Electronic
TTITLE0=Children (Eat Me Edit)
TTITLE1=Children (Dream Version)
TTITLE2=Children (Guitar Mix)
TTITLE3=Children (Message Version)
EXTD=
EXTT0=
EXTT1=
EXTT2=
EXTT3=
PLAYORDER=
